<svg width="448" height="108" viewBox="0 0 448 108" fill="none" xmlns="http://www.w3.org/2000/svg">
<path d="M0 0.000976562V40.108L23.983 21.67L0 0.000976562Z" fill="#2B3031"/>
<path d="M0 107.818L23.983 86.154L0 67.73V107.818Z" fill="#2B3031"/>
<path d="M44.972 48.415L105.314 0H70.143L0 53.921L44.972 48.415Z" fill="#00CBA6"/>
<path d="M0 53.9209L70.143 107.821H105.314L44.972 59.3969L0 53.9209Z" fill="#00CBA6"/>
<path d="M173.091 47H167.455C167.121 45.3788 166.538 43.9545 165.705 42.7273C164.886 41.5 163.886 40.4697 162.705 39.6364C161.538 38.7879 160.242 38.1515 158.818 37.7273C157.394 37.303 155.909 37.0909 154.364 37.0909C151.545 37.0909 148.992 37.803 146.705 39.2273C144.432 40.6515 142.621 42.75 141.273 45.5227C139.939 48.2955 139.273 51.697 139.273 55.7273C139.273 59.7576 139.939 63.1591 141.273 65.9318C142.621 68.7045 144.432 70.803 146.705 72.2273C148.992 73.6515 151.545 74.3636 154.364 74.3636C155.909 74.3636 157.394 74.1515 158.818 73.7273C160.242 73.303 161.538 72.6742 162.705 71.8409C163.886 70.9924 164.886 69.9545 165.705 68.7273C166.538 67.4848 167.121 66.0606 167.455 64.4545H173.091C172.667 66.8333 171.894 68.9621 170.773 70.8409C169.652 72.7197 168.258 74.3182 166.591 75.6364C164.924 76.9394 163.053 77.9318 160.977 78.6136C158.917 79.2955 156.712 79.6364 154.364 79.6364C150.394 79.6364 146.864 78.6667 143.773 76.7273C140.682 74.7879 138.25 72.0303 136.477 68.4545C134.705 64.8788 133.818 60.6364 133.818 55.7273C133.818 50.8182 134.705 46.5758 136.477 43C138.25 39.4242 140.682 36.6667 143.773 34.7273C146.864 32.7879 150.394 31.8182 154.364 31.8182C156.712 31.8182 158.917 32.1591 160.977 32.8409C163.053 33.5227 164.924 34.5227 166.591 35.8409C168.258 37.1439 169.652 38.7348 170.773 40.6136C171.894 42.4773 172.667 44.6061 173.091 47ZM191.744 79.8182C189.532 79.8182 187.525 79.4015 185.722 78.5682C183.919 77.7197 182.487 76.5 181.426 74.9091C180.366 73.303 179.835 71.3636 179.835 69.0909C179.835 67.0909 180.229 65.4697 181.017 64.2273C181.805 62.9697 182.858 61.9848 184.176 61.2727C185.494 60.5606 186.949 60.0303 188.54 59.6818C190.146 59.3182 191.759 59.0303 193.381 58.8182C195.502 58.5455 197.222 58.3409 198.54 58.2045C199.873 58.053 200.843 57.803 201.449 57.4545C202.07 57.1061 202.381 56.5 202.381 55.6364V55.4545C202.381 53.2121 201.767 51.4697 200.54 50.2273C199.328 48.9848 197.487 48.3636 195.017 48.3636C192.456 48.3636 190.449 48.9242 188.994 50.0455C187.54 51.1667 186.517 52.3636 185.926 53.6364L180.835 51.8182C181.744 49.697 182.956 48.0455 184.472 46.8636C186.002 45.6667 187.669 44.8333 189.472 44.3636C191.29 43.8788 193.078 43.6364 194.835 43.6364C195.956 43.6364 197.244 43.7727 198.699 44.0455C200.169 44.303 201.585 44.8409 202.949 45.6591C204.328 46.4773 205.472 47.7121 206.381 49.3636C207.29 51.0152 207.744 53.2273 207.744 56V79H202.381V74.2727H202.108C201.744 75.0303 201.138 75.8409 200.29 76.7045C199.441 77.5682 198.313 78.303 196.903 78.9091C195.494 79.5152 193.775 79.8182 191.744 79.8182ZM192.562 75C194.684 75 196.472 74.5833 197.926 73.75C199.396 72.9167 200.502 71.8409 201.244 70.5227C202.002 69.2045 202.381 67.8182 202.381 66.3636V61.4545C202.153 61.7273 201.653 61.9773 200.881 62.2045C200.123 62.4167 199.244 62.6061 198.244 62.7727C197.259 62.9242 196.297 63.0606 195.358 63.1818C194.434 63.2879 193.684 63.3788 193.108 63.4545C191.714 63.6364 190.411 63.9318 189.199 64.3409C188.002 64.7348 187.032 65.3333 186.29 66.1364C185.563 66.9242 185.199 68 185.199 69.3636C185.199 71.2273 185.888 72.6364 187.267 73.5909C188.661 74.5303 190.426 75 192.562 75ZM222.534 66.2727L222.443 59.6364H223.534L238.807 44.0909H245.443L229.17 60.5455H228.716L222.534 66.2727ZM217.534 79V32.4545H222.898V79H217.534ZM239.716 79L226.08 61.7273L229.898 58L246.534 79H239.716ZM265.545 79.7273C262.182 79.7273 259.28 78.9848 256.841 77.5C254.417 76 252.545 73.9091 251.227 71.2273C249.924 68.5303 249.273 65.3939 249.273 61.8182C249.273 58.2424 249.924 55.0909 251.227 52.3636C252.545 49.6212 254.379 47.4848 256.727 45.9545C259.091 44.4091 261.848 43.6364 265 43.6364C266.818 43.6364 268.614 43.9394 270.386 44.5455C272.159 45.1515 273.773 46.1364 275.227 47.5C276.682 48.8485 277.841 50.6364 278.705 52.8636C279.568 55.0909 280 57.8333 280 61.0909V63.3636H253.091V58.7273H274.545C274.545 56.7576 274.152 55 273.364 53.4545C272.591 51.9091 271.485 50.6894 270.045 49.7955C268.621 48.9015 266.939 48.4545 265 48.4545C262.864 48.4545 261.015 48.9848 259.455 50.0455C257.909 51.0909 256.72 52.4545 255.886 54.1364C255.053 55.8182 254.636 57.6212 254.636 59.5455V62.6364C254.636 65.2727 255.091 67.5076 256 69.3409C256.924 71.1591 258.205 72.5455 259.841 73.5C261.477 74.4394 263.379 74.9091 265.545 74.9091C266.955 74.9091 268.227 74.7121 269.364 74.3182C270.515 73.9091 271.508 73.303 272.341 72.5C273.174 71.6818 273.818 70.6667 274.273 69.4545L279.455 70.9091C278.909 72.6667 277.992 74.2121 276.705 75.5455C275.417 76.8636 273.826 77.8939 271.932 78.6364C270.038 79.3636 267.909 79.7273 265.545 79.7273ZM288.886 79V32.4545H294.523V74H316.159V79H288.886ZM329.733 79H323.824L340.915 32.4545H346.733L363.824 79H357.915L344.006 39.8182H343.642L329.733 79ZM331.915 60.8182H355.733V65.8182H331.915V60.8182ZM375.903 79L363.176 32.4545H368.903L378.631 70.3636H379.085L388.994 32.4545H395.358L405.267 70.3636H405.722L415.449 32.4545H421.176L408.449 79H402.631L392.358 41.9091H391.994L381.722 79H375.903Z" fill="black"/>
</svg>
